<svg width="418" height="407" viewBox="0 0 418 407" fill="none" xmlns="http://www.w3.org/2000/svg">
<path d="M94.3353 161.96C134.638 161.96 167.31 129.288 167.31 88.9855C167.31 48.6825 134.638 16.0105 94.3353 16.0105C54.0323 16.0105 21.3603 48.6825 21.3603 88.9855C21.3603 129.288 54.0323 161.96 94.3353 161.96Z" fill="#5630F4"/>
<path d="M0.510254 203.66C0.510254 228.305 5.34745 252.7 14.8134 275.468C24.2376 298.236 38.082 318.919 55.4709 336.35C72.9015 353.78 93.5847 367.583 116.353 377.007C139.121 386.432 163.516 391.31 188.16 391.31V203.66H0.510254Z" fill="#5630F4"/>
<path d="M229.86 391.31C254.505 391.31 278.899 386.473 301.668 377.007C324.436 367.583 345.119 353.739 362.55 336.35C379.98 318.961 393.783 298.236 403.207 275.468C412.631 252.7 417.51 228.305 417.51 203.66H229.86V391.31Z" fill="#5630F4"/>
<path d="M317.806 20.5974C319.349 14.4675 328.064 14.4675 329.565 20.5974L330.858 25.8099C337.738 53.4153 359.256 74.9325 386.861 81.813L392.074 83.1057C398.203 84.6486 398.203 93.3639 392.074 94.8651L386.861 96.1578C359.256 103.038 337.738 124.556 330.858 152.161L329.565 157.373C328.022 163.503 319.307 163.503 317.806 157.373L316.513 152.161C309.633 124.597 288.115 103.038 260.51 96.1578L255.297 94.8651C249.168 93.3222 249.168 84.6069 255.297 83.1057L260.51 81.813C288.115 74.9325 309.633 53.4153 316.513 25.8099L317.806 20.5974Z" fill="#5630F4"/>
</svg>
